<svg xmlns="http://www.w3.org/2000/svg" xmlns:xlink="http://www.w3.org/1999/xlink" width="18" height="16" version="1.1" viewBox="0 0 18 16"><title>Shape</title><desc>Created with Sketch.</desc><defs><path id="path-1" d="M0,0 L0,251.002354 C0,270.33102 15.6655036,286 35.0053814,286 L375,286 L375,0 L0,0 Z"/><linearGradient id="linearGradient-3" x1="112.342%" x2="2.297%" y1="56.827%" y2="49.908%"><stop offset="0%" stop-color="#3B37DE"/><stop offset="100%" stop-color="#6E6CD1" stop-opacity="0"/></linearGradient></defs><g id="Page-1" fill="none" fill-rule="evenodd" stroke="none" stroke-width="1"><g id="home" transform="translate(-20.000000, -115.000000)"><rect id="bg" width="375" height="812" x="0" y="0" fill="#FFF"/><g id="header" transform="translate(-252.000000, -208.000000)"><g id="bg"><g id="Nav-bar"><g id="Rectangle" transform="translate(252.000000, 208.000000)"><mask id="mask-2" fill="#fff"><use xlink:href="#path-1"/></mask><use id="Mask" fill="#3B37DE" xlink:href="#path-1"/></g><polygon id="Rectangle-Copy" fill="url(#linearGradient-3)" points="-1.434 158.543 541.786 159.296 542.083 374.009 -1.137 373.256" opacity=".7" transform="translate(270.324504, 266.276105) scale(1, -1) rotate(44.000000) translate(-270.324504, -266.276105)"/></g></g><g id="bal" fill="#FFF" transform="translate(272.000000, 293.000000)"><g id="Group-5"><path id="Shape" d="M1.41434207,33.8752805 C3.216034,32.3280858 4.63927988,31.1048904 8.50046076,33.2866783 C10.355362,34.3345717 11.851616,34.7301355 13.0972913,34.7299293 C15.2782542,34.7299293 16.6911882,33.5166333 17.9133524,32.4664713 C18.3491325,32.0923562 17.0213746,30.4799904 16.5855945,30.8547242 C14.7841088,32.4025376 13.3610692,33.6253205 9.49865089,31.4431202 C4.39653819,28.5609493 2.00686278,30.6140449 0.0865842206,32.2633272 C-0.348989652,32.6376485 0.978355728,34.249808 1.41434207,33.8752805 Z M16.5855945,36.1207958 C14.7841088,37.6681967 13.3610692,38.8911859 9.49865089,36.7091918 C4.39653819,33.8268147 2.00686278,35.8799103 0.0865842206,37.5293988 C-0.348989652,37.9039264 0.978561965,39.5156734 1.41434207,39.1411459 C3.216034,37.593745 4.63927988,36.3707558 8.50046076,38.5523375 C10.355362,39.6002308 11.851616,39.9960009 13.0972913,39.9960009 C15.2782542,39.9960009 16.6911882,38.7824987 17.9133524,37.7325429 C18.3491325,37.3580153 17.0215809,35.746062 16.5855945,36.1207958 Z M16.5855945,41.3862487 C14.7841088,42.9338559 13.3610692,44.1566388 9.49865089,41.9748509 C4.39653819,39.0924738 2.00686278,41.1455694 0.0865842206,42.795058 C-0.348989652,43.1693793 0.978561965,44.7815388 1.41434207,44.4070113 C3.216034,42.8591979 4.63907364,41.6368274 8.50046076,43.8179966 C10.355362,44.8663025 11.851616,45.26166 13.0972913,45.26166 C15.2782542,45.26166 16.6911882,44.0481578 17.9133524,42.9984083 C18.3491325,42.624087 17.0215809,41.0121337 16.5855945,41.3862487 Z"/></g></g></g></g></g></svg>