<svg xmlns="http://www.w3.org/2000/svg" xmlns:xlink="http://www.w3.org/1999/xlink" width="20" height="19" version="1.1" viewBox="0 0 20 19"><title>menu</title><desc>Created with Sketch.</desc><defs><path id="path-1" d="M0,0 L0,251.002354 C0,270.33102 15.6655036,286 35.0053814,286 L375,286 L375,0 L0,0 Z"/><linearGradient id="linearGradient-3" x1="112.342%" x2="2.297%" y1="56.827%" y2="49.908%"><stop offset="0%" stop-color="#3B37DE"/><stop offset="100%" stop-color="#6E6CD1" stop-opacity="0"/></linearGradient></defs><g id="Page-1" fill="none" fill-rule="evenodd" stroke="none" stroke-width="1"><g id="home" transform="translate(-20.000000, -36.000000)"><rect id="bg" width="375" height="812" x="0" y="0" fill="#FFF"/><g id="header" transform="translate(-252.000000, -208.000000)"><g id="bg"><g id="Nav-bar"><g id="Rectangle" transform="translate(252.000000, 208.000000)"><mask id="mask-2" fill="#fff"><use xlink:href="#path-1"/></mask><use id="Mask" fill="#3B37DE" xlink:href="#path-1"/></g><polygon id="Rectangle-Copy" fill="url(#linearGradient-3)" points="-1.434 158.543 541.786 159.296 542.083 374.009 -1.137 373.256" opacity=".7" transform="translate(270.324504, 266.276105) scale(1, -1) rotate(44.000000) translate(-270.324504, -266.276105)"/></g></g><g id="menu" fill="#FFF"><g transform="translate(272.000000, 235.000000) translate(0.000000, 9.000000)"><circle id="Oval" cx="3.5" cy="3.5" r="3.5"/><circle id="Oval-Copy-2" cx="3.5" cy="15.5" r="3.5"/><circle id="Oval-Copy" cx="16.5" cy="3.5" r="3.5"/><circle id="Oval-Copy-3" cx="16.5" cy="15.5" r="3.5"/></g></g></g></g></g></svg>