<svg xmlns="http://www.w3.org/2000/svg" xmlns:xlink="http://www.w3.org/1999/xlink" width="12" height="12" version="1.1" viewBox="0 0 12 12"><title>Combined Shape</title><desc>Created with Sketch.</desc><defs><path id="path-1" d="M0,0 L0,251.002354 C0,270.33102 15.6655036,286 35.0053814,286 L375,286 L375,0 L0,0 Z"/><linearGradient id="linearGradient-3" x1="112.342%" x2="2.297%" y1="71.539%" y2="49.708%"><stop offset="0%" stop-color="#3B37DE"/><stop offset="100%" stop-color="#6E6CD1" stop-opacity="0"/></linearGradient><linearGradient id="linearGradient-4" x1="112.342%" x2="2.297%" y1="56.827%" y2="49.908%"><stop offset="0%" stop-color="#3B37DE"/><stop offset="100%" stop-color="#6E6CD1" stop-opacity="0"/></linearGradient></defs><g id="Page-1" fill="none" fill-rule="evenodd" stroke="none" stroke-width="1"><g id="home" transform="translate(-248.000000, -104.000000)"><rect id="bg" width="375" height="812" x="0" y="0" fill="#FFF"/><g id="header" transform="translate(-252.000000, -208.000000)"><g id="bg"><g id="Nav-bar"><g id="Rectangle" transform="translate(252.000000, 208.000000)"><mask id="mask-2" fill="#fff"><use xlink:href="#path-1"/></mask><use id="Mask" fill="#3B37DE" xlink:href="#path-1"/><polygon fill="url(#linearGradient-3)" points="228.896 187.046 534.729 187.799 534.896 402.512 229.064 401.759" mask="url(#mask-2)" opacity=".7" transform="translate(381.896485, 294.779226) scale(1, -1) rotate(42.000000) translate(-381.896485, -294.779226)"/></g><polygon id="Rectangle-Copy" fill="url(#linearGradient-4)" points="-1.434 158.543 541.786 159.296 542.083 374.009 -1.137 373.256" opacity=".7" transform="translate(270.324504, 266.276105) scale(1, -1) rotate(44.000000) translate(-270.324504, -266.276105)"/></g></g><g id="crypto" fill="#FFF" transform="translate(282.000000, 295.000000)"><g id="button" transform="translate(205.000000, 0.000000)"><rect id="Rectangle" width="120" height="44" x="0" y="0" fill-opacity=".1" rx="10"/><g id="Group" transform="translate(13.000000, 14.000000)"><path id="Combined-Shape" d="M6,3 C6.47338693,3 6.85714286,3.38375593 6.85714286,3.85714286 L6.857,8.142 L11.1428571,8.14285714 C11.6162441,8.14285714 12,8.52661307 12,9 C12,9.47338693 11.6162441,9.85714286 11.1428571,9.85714286 L6.857,9.857 L6.85714286,14.1428571 C6.85714286,14.6162441 6.47338693,15 6,15 C5.52661307,15 5.14285714,14.6162441 5.14285714,14.1428571 L5.142,9.857 L0.857142857,9.85714286 C0.383755929,9.85714286 -2.55407722e-15,9.47338693 -2.6120504e-15,9 C-2.67002357e-15,8.52661307 0.383755929,8.14285714 0.857142857,8.14285714 L5.142,8.142 L5.14285714,3.85714286 C5.14285714,3.38375593 5.52661307,3 6,3 Z"/></g></g></g></g></g></g></svg>