<svg xmlns="http://www.w3.org/2000/svg" xmlns:xlink="http://www.w3.org/1999/xlink" width="888" height="461" version="1.1" viewBox="0 0 888 461"><title>undraw_factory_dy0a</title><desc>Created with Sketch.</desc><g id="Page-1" fill="none" fill-rule="evenodd" stroke="none" stroke-width="1"><g id="undraw_factory_dy0a" fill-rule="nonzero"><path id="Path" fill="#E2E2E2" d="M213.70122,452.70603 L191.82679,417.99216 L213.71136,456.48773 L213.72309,460.4432 C215.28365,460.42496 216.828457,460.36514 218.35751,460.26374 L216.57334,409.45156 L216.5968,409.05881 L216.5566,408.98381 L216.38672,404.18239 L239.25836,366.13602 L216.36313,400.58672 L216.29462,401.60372 L214.94684,363.21313 L234.60916,323.84926 L214.79316,356.46734 L213.8714,276.89434 L213.86718,276.62951 L213.86401,276.89011 L213.4152,339.62802 L194.62677,314.52558 L213.43183,345.03164 L213.51902,379.39364 L196.08612,346.20672 L213.52865,384.4455 L213.57689,403.5525 L188.254,357.34438 L213.59685,410.21801 L213.70122,452.70603 Z"/><path id="Path" fill="#E2E2E2" d="M401.41283,452.70603 L379.5384,417.99216 L401.423,456.48773 L401.43473,460.4432 C402.99529,460.42496 404.540097,460.36514 406.06915,460.26374 L404.285,409.45156 L404.30846,409.05881 L404.26826,408.98381 L404.09838,404.18239 L426.97,366.13604 L404.07476,400.58674 L404.00626,401.60374 L402.65848,363.21315 L422.3208,323.84928 L402.5048,356.46736 L401.58304,276.89436 L401.57881,276.62953 L401.57564,276.89013 L401.12684,339.62804 L382.33841,314.5256 L401.14347,345.03166 L401.23066,379.39366 L383.79775,346.20674 L401.24029,384.44552 L401.28852,403.55252 L375.96564,357.34444 L401.30849,410.21807 L401.41283,452.70603 Z"/><path id="Path" fill="#E2E2E2" d="M25.81131,454.93865 L10.0159,429.87195 L25.81863,457.6694 L25.8271,460.52562 C26.9539667,460.512453 28.0694633,460.469257 29.17359,460.39603 L27.88525,423.70483 L27.90219,423.42123 L27.87319,423.36708 L27.75052,419.90001 L44.266,392.42692 L27.73347,417.30359 L27.68401,418.03794 L26.71078,390.3163 L40.90884,361.89186 L26.59984,385.4452 L25.93424,327.98593 L25.93119,327.7947 L25.9289,327.98287 L25.60482,373.28559 L12.03782,355.15925 L25.61682,377.18751 L25.67982,402.00013 L13.09161,378.03603 L25.68677,405.64803 L25.72161,419.4451 L7.436,386.07851 L25.73594,424.25828 L25.81131,454.93865 Z"/><path id="Path" fill="#E2E2E2" d="M857.94505,452.70603 L836.07062,417.99216 L857.95518,456.48773 L857.96691,460.4432 C859.52747,460.42496 861.07228,460.36514 862.60134,460.26374 L860.81716,409.45156 L860.84062,409.05881 L860.80043,408.98381 L860.63054,404.18239 L883.50218,366.13602 L860.60695,400.58672 L860.53845,401.60372 L859.19067,363.21313 L878.85298,323.84926 L859.03698,356.46734 L858.11522,276.89434 L858.111,276.62951 L858.10783,276.89011 L857.65902,339.62802 L838.87059,314.52558 L857.67565,345.03164 L857.76285,379.39364 L840.32994,346.20672 L857.77247,384.4455 L857.82071,403.5525 L832.49782,357.34442 L857.84067,410.21805 L857.94505,452.70603 Z"/><g id="truck" transform="translate(93.529930, 296.150748)"><g id="boards" fill="#6C63FF" transform="translate(165.184010, 84.144632)"><rect id="Rectangle" width="118" height="5" x="6" y="15" transform="translate(65.000000, 17.500000) rotate(-180.000000) translate(-65.000000, -17.500000)"/><rect id="Rectangle" width="118" height="5" x="0" y="10" transform="translate(59.000000, 12.500000) rotate(-180.000000) translate(-59.000000, -12.500000)"/><rect id="Rectangle" width="118" height="5" x="7" y="5" transform="translate(66.000000, 7.500000) rotate(-180.000000) translate(-66.000000, -7.500000)"/><rect id="Rectangle" width="118" height="5" x="19" y="0" transform="translate(78.000000, 2.500000) rotate(-180.000000) translate(-78.000000, -2.500000)"/></g><rect id="Rectangle" width="4.097" height="29.088" x="83.783" y="62.049" fill="#3F3D56" transform="translate(85.831545, 76.593627) rotate(-180.000000) translate(-85.831545, -76.593627)"/><rect id="Rectangle" width="4.097" height="163.621" x="158.301" y="-49" fill="#3F3D56" transform="translate(160.349393, 32.810630) rotate(-112.091510) translate(-160.349393, -32.810630)"/><rect id="Rectangle" width="35.644" height="13.93" x="7.989" y="120.636" fill="#3F3D56" transform="translate(25.810925, 127.600922) rotate(-180.000000) translate(-25.810925, -127.600922)"/><rect id="Rectangle" width="175.76" height="15.568" x="11.267" y="132.927" fill="#3F3D56" transform="translate(99.146700, 140.711227) rotate(-180.000000) translate(-99.146700, -140.711227)"/><polygon id="Path" fill="#E2E2E2" points="40.15 140.711 82.349 140.711 82.349 87.655 50.802 87.655 40.15 114.414"/><rect id="Rectangle" width="18.027" height="18.027" x="57.767" y="90.933" fill="#FFF" transform="translate(66.780635, 99.946367) rotate(-180.000000) translate(-66.780635, -99.946367)"/><polygon id="Path" fill="#FFF" points="44.247 109.164 55.719 109.164 55.719 91.138 50.802 91.138"/><rect id="Rectangle" width="4.097" height="7.784" x="70.878" y="119.202" fill="#3F3D56" transform="translate(72.926085, 123.094257) rotate(-180.000000) translate(-72.926085, -123.094257)"/><path id="Path" fill="#3F3D56" d="M48.13942,102.609402 L48.34427,102.609402 C50.4938285,102.609402 52.23639,104.351974 52.23639,106.501532 L52.23639,106.501532 C52.23639,108.651091 50.4938285,110.393652 48.34427,110.393652 L48.13942,110.393652 L48.13942,102.609402 L48.13942,102.609402 Z" transform="translate(50.187905, 106.501527) rotate(180.000000) translate(-50.187905, -106.501527)"/><path id="Path" fill="#3F3D56" d="M200.54672,132.926992 L200.75157,132.926992 C202.901129,132.926992 204.64369,134.669564 204.64369,136.819122 L204.64369,136.819122 C204.64369,138.968681 202.901129,140.711242 200.75157,140.711242 L200.54672,140.711242 L200.54672,132.926992 L200.54672,132.926992 Z" transform="translate(202.595205, 136.819117) rotate(-180.000000) translate(-202.595205, -136.819117)"/><path id="Path" fill="#E2E2E2" d="M23.76243,132.868192 C17.5903596,132.947284 11.7906339,135.83434 8.00685,140.711192 L0,140.711192 L7.78425,119.027532 L44.04244,111.876532 L43.0182,140.711192 L39.51807,140.711192 C35.7342711,135.834326 29.9345209,132.947269 23.76243,132.868192 L23.76243,132.868192 Z"/><circle id="Oval" cx="23.353" cy="145.832" r="17.822" fill="#3F3D56"/><circle id="Oval" cx="23.353" cy="145.832" r="9.38" fill="#E2E2E2"/><circle id="Oval" cx="184.364" cy="147.881" r="15.568" fill="#3F3D56"/><circle id="Oval" cx="184.364" cy="147.881" r="8.194" fill="#E2E2E2"/><rect id="Rectangle" width="8.604" height="62.069" x="81.12" y="80.281" fill="#3F3D56" transform="translate(85.421850, 111.315457) rotate(-180.000000) translate(-85.421850, -111.315457)"/><rect id="Rectangle" width="123.729" height="3.687" x="81.12" y="131.083" fill="#3F3D56" transform="translate(142.984285, 132.926987) rotate(-180.000000) translate(-142.984285, -132.926987)"/><rect id="Rectangle" width="4.097" height="1.639" x="49.778" y="109.984" fill="#3F3D56" transform="translate(51.826685, 110.803337) rotate(-180.000000) translate(-51.826685, -110.803337)"/><g id="string" fill="#3F3D56" transform="translate(230.757840, 49.996722)"><path id="Shape" d="M0.106480119,54.11723 C0.0279297929,54.0307799 -0.00998681407,53.9149127 0.00226011911,53.79875 L5.65260012,0.36669 C5.67460824,0.158927201 5.84936716,0.000968294765 6.05829012,0 L6.06009012,0 C6.26832435,0 6.44343257,0.156215456 6.46719012,0.36309 L12.5782301,53.68434 C12.5914271,53.7997082 12.555054,53.9152581 12.4781531,54.0022651 C12.4012521,54.0892721 12.2910456,54.1395645 12.1749301,54.14064 L0.413540119,54.25147 L0.409740119,54.25147 C0.294240357,54.25147 0.18409704,54.2027625 0.106480119,54.11723 Z M6.07648012,4.15078 L0.865480119,53.42766 L11.7122301,53.32564 L6.07648012,4.15078 Z"/></g><path id="Path" fill="#3F3D56" d="M6.35028292,119.81667 L6.55513292,119.81667 C8.70469145,119.81667 10.4472529,121.559241 10.4472529,123.7088 L10.4472529,123.7088 C10.4472529,125.858358 8.70469145,127.60092 6.55513292,127.60092 L6.35028292,127.60092 L6.35028292,119.81667 L6.35028292,119.81667 Z" transform="translate(8.398768, 123.708795) rotate(20.717380) translate(-8.398768, -123.708795)"/><rect id="Rectangle" width="4.097" height="59.816" x="234.961" y=".185" fill="#3F3D56" transform="translate(237.009785, 30.093012) rotate(-180.000000) translate(-237.009785, -30.093012)"/><circle id="Oval" cx="85.832" cy="62.869" r="5.736" fill="#3F3D56"/><rect id="Rectangle" width="118" height="5" x="94.184" y="126.145" fill="#6C63FF" transform="translate(153.184010, 128.644632) rotate(-180.000000) translate(-153.184010, -128.644632)"/><rect id="Rectangle" width="118" height="5" x="101.184" y="121.145" fill="#6C63FF" transform="translate(160.184010, 123.644632) rotate(-180.000000) translate(-160.184010, -123.644632)"/><rect id="Rectangle" width="118" height="5" x="96.184" y="117.145" fill="#6C63FF" transform="translate(155.184010, 119.644632) rotate(-180.000000) translate(-155.184010, -119.644632)"/><rect id="Rectangle" width="118" height="5" x="103.184" y="112.145" fill="#6C63FF" transform="translate(162.184010, 114.644632) rotate(-180.000000) translate(-162.184010, -114.644632)"/></g><g id="cloud" fill="#E2E2E2" transform="translate(183.756190, 86.987656)"><path id="Path" d="M198.58106,35.2545442 C202.341494,35.2502222 205.976863,36.6047587 208.81763,39.0686842 C211.062087,38.4556878 213.415207,38.3522922 215.70478,38.7660642 C219.595322,33.120083 226.706404,30.6616454 233.253294,32.6992058 C239.800184,34.7367662 244.25962,40.7964309 244.25962,47.6530642 L183.26268,47.6530642 C184.803979,40.4236736 191.189194,35.2555545 198.58106,35.2545442 L198.58106,35.2545442 Z"/><path id="Path" d="M106.81537,84.6026342 C110.370495,84.5985472 113.807383,85.8791305 116.49305,88.2085342 C118.614967,87.6290146 120.839611,87.5312634 123.00418,87.9224342 C126.682304,82.584719 133.405124,80.2605053 139.594564,82.1868059 C145.784004,84.1131065 150,89.8419061 150,96.3241742 L92.33334,96.3241742 C93.790509,89.4895128 99.8270986,84.6035868 106.81537,84.6026342 L106.81537,84.6026342 Z"/><path id="Path" d="M15.068,3.21054417 C18.7669772,3.20629139 22.3429336,4.53869275 25.13727,6.96235417 C27.3450448,6.35937712 29.6597059,6.25766937 31.91186,6.66467417 C35.7388212,1.11100089 42.7336548,-1.3072411 49.1735255,0.697000466 C55.6133962,2.70124203 60,8.66182684 60,15.4063742 L0,15.4063742 C1.51612859,8.29516734 7.79696792,3.21154319 15.068,3.21054417 L15.068,3.21054417 Z"/></g><g id="building-smoke" fill="#E2E2E2" transform="translate(594.998750, 94.690703)"><path id="Shape" d="M0,150.494837 L0,275.400597 L48.57425,275.400597 L48.57425,148.759977 L37.29837,149.162687 L37.29837,123.605317 L29.11966,123.605317 L27.772,67.0015566 C31.07229,64.8510366 33.39505,59.7433766 33.39505,53.7795566 C33.3986869,52.0673837 33.1993801,50.3608137 32.8013,48.6955566 C36.0134857,45.2197029 36.4738428,40.0134048 33.92142,36.0278266 C36.7458551,38.4960258 40.6799438,39.2534152 44.2188818,38.0102905 C47.7578197,36.7671657 50.3540309,33.7158741 51.0144542,30.0235467 C51.6748776,26.3312193 50.2973267,22.5691658 47.40872,20.1763866 C52.3580389,18.3499288 55.1585152,13.1097762 53.9267895,7.98000451 C52.6950637,2.85023287 47.8206204,-0.547070478 42.5815908,0.0728285036 C37.3425613,0.692727485 33.3955812,5.13381028 33.39505,10.4093866 C33.39505,10.5618566 33.39993,10.7130966 33.40628,10.8637366 C30.5144339,9.98039639 27.3814497,10.3973878 24.8213246,12.00637 C22.2611996,13.6153521 20.5266688,16.2574867 20.06839,19.2463066 C16.521083,17.1357671 12.0617949,17.3207074 8.7014301,19.717729 C5.34106533,22.1147506 3.71455725,26.2709417 4.55537547,30.3120787 C5.39619368,34.3532158 8.54546748,37.515735 12.58304,38.3735066 C12.58104,38.4490666 12.57718,38.5240166 12.57718,38.6000666 C13.543908,41.5174014 14.7744172,44.3405935 16.25345,47.0346366 C15.5303384,49.2093833 15.1676446,51.4877239 15.17972,53.7795066 C15.17972,59.7433766 17.50198,64.8510366 20.80227,67.0015066 L19.45462,123.605267 L11.2764,123.605267 L11.2764,150.092007 L0,150.494837 Z M30.332,31.2264066 L30.35886,31.2270166 C30.50925,31.2270166 30.65817,31.2221366 30.80661,31.2157866 C30.9003633,31.5234066 31.0076233,31.8245932 31.12839,32.1193466 C30.8802032,31.8067392 30.6143144,31.5086043 30.33203,31.2264066 L30.332,31.2264066 Z"/></g><rect id="Rectangle" width="147.458" height="170.589" x="568.254" y="288.411" fill="#3F3D56" transform="translate(641.982935, 373.705510) rotate(-180.000000) translate(-641.982935, -373.705510)"/><rect id="Rectangle" width="39.756" height="34.696" x="622.105" y="424.304" fill="#E2E2E2" transform="translate(641.982935, 441.651970) rotate(-180.000000) translate(-641.982935, -441.651970)"/><g id="smoke" fill="#E2E2E2" transform="translate(505.366503, -0.001183)"><path id="Shape" d="M13.7440771,63.9559929 C13.7412571,64.0819929 13.7345471,64.2068929 13.7345471,64.3334729 C13.7297475,69.0208487 15.6280102,73.5093667 18.9945471,76.7709529 C19.2547483,77.3260077 19.5442186,77.8668647 19.8617371,78.3912429 C18.6561091,82.0157249 18.0514135,85.8129968 18.0715971,89.6326829 C18.0715971,102.806633 24.8675971,113.486233 33.2511271,113.486233 C41.6346571,113.486233 48.4306471,102.806633 48.4306471,89.6326829 C48.4368954,86.7790282 48.1048078,83.9346951 47.4413371,81.1592329 C52.7947814,75.3661512 53.5619849,66.6891699 49.3080771,60.0466229 C54.0155417,64.1598247 60.5721163,65.4218022 66.4700638,63.3498785 C72.3680112,61.2779547 76.6948263,56.1926888 77.795603,50.0390766 C78.8963796,43.8854644 76.6008104,37.6155665 71.7868971,33.6274729 C80.0358168,30.5833468 84.7032913,21.849683 82.6503687,13.3000112 C80.5974462,4.75033932 72.4732848,-0.911833729 63.7415142,0.121394663 C55.0097435,1.15462306 48.4314521,8.55653391 48.4306471,17.3492229 C48.4306471,17.6032229 48.4391171,17.8552229 48.4497071,18.1065129 C43.6299534,16.6342339 38.4082834,17.3291846 34.1413712,20.0108056 C29.8744589,22.6924265 26.9835347,27.0959877 26.2197071,32.0773729 C20.3075253,28.559698 12.8753043,28.867866 7.27462821,32.8629076 C1.67395209,36.8579492 -1.03692729,43.7849983 0.36446987,50.5202798 C1.76586703,57.2555612 7.01474568,62.5264387 13.7441071,63.9559929 L13.7440771,63.9559929 Z M43.3707671,52.0452829 C43.6210071,52.0452829 43.8694771,52.0369029 44.1172471,52.0264029 C44.2729004,52.5391429 44.4514938,53.0411429 44.6530271,53.5324029 C44.2395008,53.0113416 43.7964124,52.5144414 43.3259471,52.0441529 L43.3707671,52.0452829 Z"/></g><path id="Path" fill="#6C63FF" d="M529.94113,232.03003 L547.29123,232.03003 L546.6716,206.01003 L546.6716,206.00003 L544.40109,110.59003 C540.849747,112.760081 536.382613,112.760081 532.83127,110.59003 L530.56127,206.00003 L530.56127,206.01003 L529.94113,232.03003 Z"/><polygon id="Path" fill="#6C63FF" points="498.141 250.82 498.141 459 579.092 459 579.092 247.93 560.301 248.6 560.301 206.01 516.931 206.01 516.931 250.15"/><g id="smoke2" fill="#E2E2E2" transform="translate(712.097213, -0.001187)"><path id="Shape" d="M13.7440771,63.9559966 C13.7412571,64.0819966 13.7345471,64.2068966 13.7345471,64.3334766 C13.7297475,69.0208524 15.6280102,73.5093704 18.9945471,76.7709566 C19.2547483,77.3260114 19.5442186,77.8668684 19.8617371,78.3912466 C18.6561091,82.0157286 18.0514135,85.8130005 18.0715971,89.6326866 C18.0715971,102.806637 24.8675971,113.486237 33.2511171,113.486237 C41.6346371,113.486237 48.4306471,102.806637 48.4306471,89.6326866 C48.4368904,86.7790322 48.1048029,83.9346997 47.4413371,81.1592366 C52.7947814,75.3661549 53.5619849,66.6891735 49.3080771,60.0466266 C54.0155284,64.1599329 60.5721603,65.4219844 66.4701726,63.3500678 C72.3681848,61.2781512 76.6950443,56.1928309 77.7958008,50.0391554 C78.8965573,43.8854799 76.6009032,37.6155383 71.7868871,33.6274766 C80.0358104,30.583355 84.7032902,21.8496912 82.6503701,13.3000169 C80.59745,4.75034257 72.4732878,-0.911833522 63.7415152,0.121394535 C55.0097427,1.15462259 48.4314503,8.55653578 48.4306471,17.3492266 C48.4306471,17.6032266 48.4391171,17.8552266 48.4497071,18.1065166 C43.6299534,16.6342376 38.4082834,17.3291883 34.1413712,20.0108093 C29.8744589,22.6924302 26.9835347,27.0959913 26.2197071,32.0773766 C20.3075253,28.5597017 12.8753043,28.8678697 7.27462821,32.8629113 C1.67395209,36.8579529 -1.03692729,43.785002 0.36446987,50.5202835 C1.76586703,57.2555649 7.01474568,62.5264424 13.7441071,63.9559966 L13.7440771,63.9559966 Z M43.3707871,52.0452766 C43.6210271,52.0452766 43.8694971,52.0368966 44.1172671,52.0263966 C44.2729138,52.5391366 44.4515038,53.0411366 44.6530371,53.5323966 C44.2395171,53.011333 43.7964319,52.5144326 43.3259671,52.0441466 L43.3707871,52.0452766 Z"/></g><path id="Path" fill="#6C63FF" d="M736.67428,232.02992 L754.02228,232.02992 L751.131,110.5937 C747.392879,111.93688 743.303771,111.93688 739.56565,110.5937 L736.67428,232.02992 Z"/><polygon id="Path" fill="#6C63FF" points="704.871 250.82 704.871 459 785.831 459 785.831 247.93 779.181 248.17 767.031 248.6 767.031 206.01 723.661 206.01 723.661 250.15"/><rect id="Rectangle" width="20" height="20" x="663.983" y="309" fill="#FFF" transform="translate(673.982940, 319.000000) rotate(-180.000000) translate(-673.982940, -319.000000)"/><rect id="Rectangle" width="20" height="20" x="631.983" y="309" fill="#FFF" transform="translate(641.982940, 319.000000) rotate(-180.000000) translate(-641.982940, -319.000000)"/><rect id="Rectangle" width="20" height="20" x="599.983" y="309" fill="#FFF" transform="translate(609.982940, 319.000000) rotate(-180.000000) translate(-609.982940, -319.000000)"/><rect id="Rectangle" width="20" height="20" x="663.983" y="341" fill="#FFF" transform="translate(673.982940, 351.000000) rotate(-180.000000) translate(-673.982940, -351.000000)"/><rect id="Rectangle" width="20" height="20" x="631.983" y="341" fill="#FFF" transform="translate(641.982940, 351.000000) rotate(-180.000000) translate(-641.982940, -351.000000)"/><rect id="Rectangle" width="20" height="20" x="599.983" y="341" fill="#FFF" transform="translate(609.982940, 351.000000) rotate(-180.000000) translate(-609.982940, -351.000000)"/><rect id="Rectangle" width="20" height="20" x="663.983" y="373" fill="#FFF" transform="translate(673.982940, 383.000000) rotate(-180.000000) translate(-673.982940, -383.000000)"/><rect id="Rectangle" width="20" height="20" x="631.983" y="373" fill="#FFF" transform="translate(641.982940, 383.000000) rotate(-180.000000) translate(-641.982940, -383.000000)"/><rect id="Rectangle" width="20" height="20" x="599.983" y="373" fill="#FFF" transform="translate(609.982940, 383.000000) rotate(-180.000000) translate(-609.982940, -383.000000)"/><rect id="Rectangle" width="20" height="20" x="528.618" y="301" fill="#FFF" transform="translate(538.617580, 311.000000) rotate(-180.000000) translate(-538.617580, -311.000000)"/><rect id="Rectangle" width="20" height="20" x="528.618" y="333" fill="#FFF" transform="translate(538.617580, 343.000000) rotate(-180.000000) translate(-538.617580, -343.000000)"/><rect id="Rectangle" width="20" height="20" x="528.618" y="365" fill="#FFF" transform="translate(538.617580, 375.000000) rotate(-180.000000) translate(-538.617580, -375.000000)"/><rect id="Rectangle" width="20" height="20" x="528.618" y="397" fill="#FFF" transform="translate(538.617580, 407.000000) rotate(-180.000000) translate(-538.617580, -407.000000)"/><rect id="Rectangle" width="20" height="20" x="735.181" y="301" fill="#FFF" transform="translate(745.181360, 311.000000) rotate(-180.000000) translate(-745.181360, -311.000000)"/><rect id="Rectangle" width="20" height="20" x="735.181" y="333" fill="#FFF" transform="translate(745.181360, 343.000000) rotate(-180.000000) translate(-745.181360, -343.000000)"/><rect id="Rectangle" width="20" height="20" x="735.181" y="365" fill="#FFF" transform="translate(745.181360, 375.000000) rotate(-180.000000) translate(-745.181360, -375.000000)"/><rect id="Rectangle" width="20" height="20" x="735.181" y="397" fill="#FFF" transform="translate(745.181360, 407.000000) rotate(-180.000000) translate(-745.181360, -407.000000)"/><rect id="Rectangle" width="888" height="2" x="0" y="458.295" fill="#3F3D56"/></g></g></svg>